<svg xmlns="http://www.w3.org/2000/svg" aria-hidden="true" style="width:0;height:0;overflow:hidden">
  <defs>
    <symbol id="icon-images" viewBox="0 0 36 32">
      <path d="M34 4h-2V2c0-1.1-.9-2-2-2H2C.9 0 0 .9 0 2v24c0 1.1.9 2 2 2h2v2c0 1.1.9 2 2 2h28c1.1 0 2-.9 2-2V6c0-1.1-.9-2-2-2zM4 6v20H2.004L2 25.996V2.003l.004-.004h27.993l.004.004v1.996h-24c-1.1 0-2 .9-2 2zm30 23.996-.004.004H6.003l-.004-.004V6.003l.004-.004h27.993l.004.004v23.993z"/>
      <path d="M30 11a3 3 0 1 1-6 0 3 3 0 0 1 6 0zM32 28H8v-4l7-12 8 10h2l7-6z"/>
    </symbol>
    <symbol id="icon-mail" viewBox="0 0 32 32">
      <path d="M16 0C7.163 0 0 7.163 0 16s7.163 16 16 16 16-7.163 16-16S24.837 0 16 0zM8 8h16c.286 0 .563.061.817.177L16 18.463 7.183 8.176c.254-.116.531-.177.817-.177zM6 22V10c0-.042.002-.084.004-.125l5.864 6.842-5.8 5.8A1.983 1.983 0 0 1 5.999 22zm18 2H8c-.177 0-.35-.024-.517-.069l5.691-5.691L16 21.537l2.826-3.297 5.691 5.691c-.167.045-.34.069-.517.069zm2-2c0 .177-.024.35-.069.517l-5.8-5.8 5.865-6.842c.003.041.004.083.004.125v12z"/>
    </symbol>
    <symbol id="icon-facebook" viewBox="0 0 32 32">
      <path d="M29 0H3C1.35 0 0 1.35 0 3v26c0 1.65 1.35 3 3 3h13V18h-4v-4h4v-2c0-3.306 2.694-6 6-6h4v4h-4c-1.1 0-2 .9-2 2v2h6l-1 4h-5v14h9c1.65 0 3-1.35 3-3V3c0-1.65-1.35-3-3-3z"/>
    </symbol>
    <symbol id="icon-instagram" viewBox="0 0 32 32">
      <path d="M16 2.881c4.275 0 4.781.019 6.462.094 1.563.069 2.406.331 2.969.55a4.952 4.952 0 0 1 1.837 1.194 5.015 5.015 0 0 1 1.2 1.838c.219.563.481 1.412.55 2.969.075 1.688.094 2.194.094 6.463s-.019 4.781-.094 6.463c-.069 1.563-.331 2.406-.55 2.969a4.94 4.94 0 0 1-1.194 1.837 5.02 5.02 0 0 1-1.837 1.2c-.563.219-1.413.481-2.969.55-1.688.075-2.194.094-6.463.094s-4.781-.019-6.463-.094c-1.563-.069-2.406-.331-2.969-.55a4.952 4.952 0 0 1-1.838-1.194 5.02 5.02 0 0 1-1.2-1.837c-.219-.563-.481-1.413-.55-2.969-.075-1.688-.094-2.194-.094-6.463s.019-4.781.094-6.463c.069-1.563.331-2.406.55-2.969a4.964 4.964 0 0 1 1.194-1.838 5.015 5.015 0 0 1 1.838-1.2c.563-.219 1.412-.481 2.969-.55 1.681-.075 2.188-.094 6.463-.094zM16 0c-4.344 0-4.887.019-6.594.094-1.7.075-2.869.35-3.881.744-1.056.412-1.95.956-2.837 1.85a7.833 7.833 0 0 0-1.85 2.831C.444 6.538.169 7.7.094 9.4.019 11.113 0 11.656 0 16s.019 4.887.094 6.594c.075 1.7.35 2.869.744 3.881.413 1.056.956 1.95 1.85 2.837a7.82 7.82 0 0 0 2.831 1.844c1.019.394 2.181.669 3.881.744 1.706.075 2.25.094 6.594.094s4.888-.019 6.594-.094c1.7-.075 2.869-.35 3.881-.744 1.05-.406 1.944-.956 2.831-1.844s1.438-1.781 1.844-2.831c.394-1.019.669-2.181.744-3.881.075-1.706.094-2.25.094-6.594s-.019-4.887-.094-6.594c-.075-1.7-.35-2.869-.744-3.881a7.506 7.506 0 0 0-1.831-2.844A7.82 7.82 0 0 0 26.482.843C25.463.449 24.301.174 22.601.099c-1.712-.081-2.256-.1-6.6-.1z"/>
      <path d="M16 7.781c-4.537 0-8.219 3.681-8.219 8.219s3.681 8.219 8.219 8.219 8.219-3.681 8.219-8.219A8.221 8.221 0 0 0 16 7.781zm0 13.55a5.331 5.331 0 1 1 0-10.663 5.331 5.331 0 0 1 0 10.663zM26.462 7.456a1.919 1.919 0 1 1-3.838 0 1.919 1.919 0 0 1 3.838 0z"/>
    </symbol>
    <symbol id="icon-telegram" viewBox="0 0 32 32">
      <path d="M16 0C7.162 0 0 7.162 0 16s7.162 16 16 16 16-7.163 16-16S24.837 0 16 0zm7.863 10.969-2.625 12.369c-.181.881-.712 1.087-1.45.681l-4-2.956-1.919 1.869c-.225.219-.4.4-.8.4-.519 0-.431-.194-.606-.688L11.1 18.169l-3.956-1.231c-.856-.262-.862-.85.194-1.269l15.412-5.95c.7-.319 1.381.169 1.113 1.25z"/>
    </symbol>
  </defs>
</svg>
