<svg xmlns="http://www.w3.org/2000/svg" aria-hidden="true" style="position:absolute;width:0;height:0;overflow:hidden">
  <defs>
<symbol id="mobile-menu-close" viewBox="0 0 32 32" fill="none">
<path id="Vector" d="M24 8L8 24" stroke="#292929" stroke-width="2" stroke-linecap="round" stroke-linejoin="round"/>
<path id="Vector_2" d="M8 8L24 24" stroke="#292929" stroke-width="2" stroke-linecap="round" stroke-linejoin="round"/>
</symbol>
<symbol id="mobile-menu" viewBox="0 0 32 32" fill="none">
<path id="Vector" d="M5.33398 23.027V21.6936H26.6673V23.027H5.33398ZM5.33398 16.667V15.3336H26.6673V16.667H5.33398ZM5.33398 10.307V8.97363H26.6673V10.307H5.33398Z" fill="#292929"/>
</symbol>
    <symbol id="icon-drop" viewBox="0 0 32 32">
      <path stroke-linecap="round" stroke-width="2.6667" d="m24 12-8 8-8-8"/>
    </symbol>
    <symbol id="icon-down" viewBox="0 0 32 32">
      <path stroke-linecap="round" stroke-width="2.6667" d="m24 20-8-8-8 8"/>
    </symbol>
    <symbol id="icon-arrow-right" viewBox="0 0 32 32">
      <path stroke-linecap="round" stroke-linejoin="round" stroke-width="2.6667" d="M5.333 16h21.333M18.667 8l8 8-8 8"/>
    </symbol>
    <symbol id="icon-mail" viewBox="0 0 32 32">
      <path stroke-linecap="round" stroke-linejoin="round" stroke-width="1.3333" d="M29 9v14c0 .796-.316 1.559-.879 2.121S26.795 26 26 26H6c-.796 0-1.559-.316-2.121-.879S3 23.795 3 23V9m26 0c0-.796-.316-1.559-.879-2.121S26.795 6 26 6H6c-.796 0-1.559.316-2.121.879S3 8.205 3 9m26 0v.324c0 .512-.131 1.016-.381 1.463s-.61.823-1.046 1.092l-10 6.153c-.473.291-1.018.446-1.573.446s-1.1-.154-1.573-.446l-10-6.152c-.436-.269-.796-.644-1.046-1.092S3 9.837 3 9.325V9"/>
    </symbol>
    <symbol id="icon-phone" viewBox="0 0 32 32">
      <path stroke-linecap="round" stroke-linejoin="round" stroke-width="1.3333" d="M3 9c0 11.045 8.955 20 20 20h3c.796 0 1.559-.316 2.121-.879S29 26.795 29 26v-1.829c0-.688-.468-1.288-1.136-1.455l-5.897-1.475a1.4977 1.4977 0 0 0-1.564.556l-1.293 1.724c-.376.501-1.025.723-1.613.507-2.183-.803-4.165-2.07-5.81-3.714s-2.912-3.627-3.714-5.81c-.216-.588.005-1.237.507-1.613l1.724-1.293c.484-.361.703-.979.556-1.564L9.285 4.137c-.081-.324-.268-.612-.532-.818s-.588-.318-.923-.318H6.001c-.796 0-1.559.316-2.121.879s-.879 1.326-.879 2.121v3z"/>
    </symbol>
    <symbol id="icon-hourglass" viewBox="0 0 32 32">
      <path stroke-linecap="round" stroke-linejoin="round" stroke-width="2.6667" d="M24.217 2.667H7.783c-.617 0-1.117.5-1.117 1.117 0 3.554 1.412 6.962 3.925 9.475l1.626 1.626c.161.161.242.242.3.32a1.335 1.335 0 0 1 0 1.594c-.058.077-.139.158-.3.32l-1.626 1.626a13.3995 13.3995 0 0 0-3.925 9.475c0 .617.5 1.117 1.117 1.117h16.434c.617 0 1.117-.5 1.117-1.117 0-3.554-1.412-6.962-3.925-9.475l-1.626-1.626c-.161-.161-.242-.242-.3-.32a1.332 1.332 0 0 1 0-1.594c.058-.077.139-.158.3-.32l1.626-1.626a13.3995 13.3995 0 0 0 3.925-9.475c0-.617-.5-1.117-1.117-1.117z"/>
    </symbol>
    <symbol id="icon-user" viewBox="0 0 32 32">
      <path stroke-linecap="round" stroke-linejoin="round" stroke-width="2.6667" d="M26.667 28c0-1.861 0-2.791-.23-3.548a5.3327 5.3327 0 0 0-3.556-3.556c-.757-.23-1.687-.23-3.548-.23h-6.667c-1.861 0-2.791 0-3.548.23a5.3347 5.3347 0 0 0-3.556 3.556c-.23.757-.23 1.687-.23 3.548M16 16c3.314 0 6-2.686 6-6s-2.686-6-6-6-6 2.686-6 6 2.686 6 6 6z"/>
    </symbol>
    <symbol id="icon-brush" viewBox="0 0 32 32">
      <path stroke-linecap="round" stroke-linejoin="round" stroke-width="2.6667" d="M17.037 20.001 12 14.964M2.667 29.332c2.667 0 6.144.456 7.966-1.367s1.822-4.777 0-6.6c-1.822-1.822-4.777-1.822-6.6 0s0 5.3-1.367 7.967zM10.667 21.332c-.655-.655-.983-.983-1.168-1.326a2.6683 2.6683 0 0 1 .05-2.623c.198-.336.538-.651 1.218-1.28L23.924 3.92c1.159-1.073 2.959-1.038 4.075.078s1.151 2.917.078 4.075L15.894 21.23c-.63.68-.944 1.02-1.28 1.218-.805.475-1.8.495-2.623.05-.343-.185-.671-.513-1.326-1.168z"/>
    </symbol>
    <symbol id="icon-chat-circle" viewBox="0 0 32 32">
      <path stroke-linecap="round" stroke-linejoin="round" stroke-width="2.6667" d="M8.126 14.972C8.043 14.438 8 13.891 8 13.334 8 7.443 12.807 2.667 18.737 2.667s10.737 4.776 10.737 10.667c0 1.331-.245 2.605-.693 3.779-.093.244-.14.366-.161.461s-.029.161-.031.257c-.002.097.011.205.037.42l.537 4.36c.058.472.087.708.009.88-.069.15-.191.27-.343.335-.173.075-.409.04-.879-.029l-4.247-.623c-.222-.033-.333-.049-.434-.048-.1.001-.169.008-.267.028s-.225.068-.477.163c-1.178.441-2.454.683-3.787.683-.558 0-1.105-.042-1.64-.124m-6.923 5.457c3.953 0 7.158-3.283 7.158-7.333s-3.205-7.333-7.158-7.333c-3.953 0-7.158 3.283-7.158 7.333 0 .814.13 1.597.369 2.329.101.309.152.464.168.57.017.11.02.172.014.284-.006.107-.033.227-.086.469l-.815 3.682 3.993-.545c.218-.03.327-.045.422-.044.1.001.153.006.252.026.093.019.232.067.51.165a6.994 6.994 0 0 0 2.332.398z"/>
    </symbol>
    <symbol id="icon-location" viewBox="0 0 32 32">
      <path stroke-linecap="round" stroke-linejoin="round" stroke-width="1.3333" d="M20 14c0 1.061-.421 2.078-1.172 2.828S17.06 18 16 18c-1.061 0-2.078-.421-2.828-1.172S12 15.06 12 14c0-1.061.421-2.078 1.172-2.828S14.94 10 16 10c1.061 0 2.078.421 2.828 1.172S20 12.94 20 14z"/>
      <path stroke-linecap="round" stroke-linejoin="round" stroke-width="1.3333" d="M26 14c0 9.523-10 15-10 15S6 23.523 6 14c0-2.652 1.054-5.196 2.929-7.071S13.348 4 16 4s5.196 1.054 7.071 2.929S26 11.348 26 14z"/>
    </symbol>
    <symbol id="icon-diagonal-arrow-up" viewBox="0 0 32 32">
      <path stroke-linejoin="round" stroke-linecap="round" stroke-miterlimit="4" stroke-width="2.6667" d="M6.333 25.667l19.333-19.333M25.667 6.333h-18M25.667 6.333v18"></path>
    </symbol>
    <symbol id="icon-success-tick" viewBox="0 0 32 32">
      <path d="M16 2c3.713 0 7.274 1.475 9.899 4.101s4.101 6.186 4.101 9.899-1.475 7.274-4.101 9.899c-2.625 2.626-6.186 4.101-9.899 4.101s-7.274-1.475-9.899-4.101c-2.626-2.625-4.101-6.186-4.101-9.899s1.475-7.274 4.101-9.899c2.626-2.626 6.186-4.101 9.899-4.101zM14.256 18.762l-3.11-3.112c-0.111-0.111-0.244-0.2-0.39-0.26s-0.302-0.091-0.459-0.091c-0.158 0-0.314 0.031-0.459 0.091s-0.278 0.149-0.39 0.26c-0.225 0.225-0.352 0.531-0.352 0.849s0.127 0.624 0.352 0.849l3.96 3.96c0.111 0.112 0.243 0.201 0.389 0.262s0.302 0.092 0.46 0.092 0.314-0.031 0.46-0.092c0.146-0.061 0.278-0.15 0.389-0.262l8.2-8.202c0.113-0.111 0.203-0.243 0.264-0.389s0.094-0.303 0.094-0.461c0.001-0.158-0.030-0.315-0.090-0.462s-0.149-0.28-0.261-0.392c-0.112-0.112-0.245-0.201-0.391-0.261s-0.303-0.091-0.462-0.091-0.315 0.032-0.461 0.094c-0.146 0.061-0.278 0.151-0.39 0.264l-7.354 7.354z"></path>
    </symbol>
    <symbol id="icon-close" viewBox="0 0 32 32">
      <path stroke-linejoin="round" stroke-linecap="round" stroke-miterlimit="4" stroke-width="2.6667" d="M24 8l-16 16"></path>
      <path stroke-linejoin="round" stroke-linecap="round" stroke-miterlimit="4" stroke-width="2.6667" d="M8 8l16 16"></path>
    </symbol>
    <symbol id="icon-facebook" viewBox="0 0 32 32">
<path d="M19 6h5v-6h-5c-3.86 0-7 3.14-7 7v3h-4v6h4v16h6v-16h5l1-6h-6v-3c0-0.542 0.458-1 1-1z"></path>
</symbol>
  </defs>
</svg>